<?xml version="1.0" encoding="utf-8"?>
<!-- Generator: Adobe Illustrator 19.0.0, SVG Export Plug-In . SVG Version: 6.00 Build 0)  -->
<svg version="1.1" xmlns="http://www.w3.org/2000/svg" xmlns:xlink="http://www.w3.org/1999/xlink" x="0px" y="0px"
	 viewBox="0 0 598 366.3" style="enable-background:new 0 0 598 366.3;" xml:space="preserve">
<style type="text/css">
	.st0{display:none;}
	.st1{display:inline;fill:#666666;stroke:#666666;stroke-width:10;stroke-miterlimit:10;}
	.st2{fill:#EAAA00;}
	.st3{fill:#005EB8;}
	.st4{fill:#D22630;}
	.st5{fill:none;}
	.st6{fill:none;stroke:#FFFFFF;stroke-width:14;stroke-miterlimit:10;}
	.st7{fill:#002E5D;stroke:#FFFFFF;stroke-width:5;stroke-miterlimit:10;}
	.st8{fill:none;stroke:#666666;stroke-width:10;stroke-miterlimit:10;}
</style>
<g id="Layer_2" class="st0">
	<rect id="XMLID_3_" x="-33.3" y="-62.7" class="st1" width="682.7" height="493.3"/>
</g>
<g id="Layer_3">
	<path id="XMLID_19_" class="st2" d="M135.5,306.7c19.8,18.1,45.4,27.2,69.5,37.7c13.4,5.9,26.9,9.6,41.4,11.8
		c6.8,1,13.7,1.9,20.6,3l-109-309c-2.3,1.5-4.6,2.9-7,4.3c-0.8,0.5-1.6,0.6-2.4,0.6c-3.4,1.8-6.8,3.5-10.4,4.9c2,1.3,3,3.7,1.1,6.2
		c-4.7,6.2-11.2,9.3-18,12.7c-8.4,4.2-15.2,10.7-21.7,17.3c-1.2,1.2-2.7,1.6-4,1.4c-8.3,8.6-16.8,16.9-25.6,24.9
		c0.2,1,0,2.1-0.6,3.2c-4.8,8.5-12.2,13.6-20.7,17.6c-0.1,1.4-0.8,2.7-2.1,3.7c-7.4,5.6-13,13.1-19.2,19.9c-4.2,4.7-8.9,9-13.7,13.1
		c0.5,1.2,0.5,2.7-0.3,4.2c-0.9,1.6-1.8,3.2-2.7,4.9c0.4,0.5,0.7,1.1,0.8,1.8c1.1,0.1,2.3,0.6,3.1,1.3c2,1.8,3.7,3.8,4.9,6.1
		c0.9,0.2,1.8,0.6,2.6,1.4c2.8,2.9,5.1,6,7.2,9.3c2.4-2.4,7.4-2.4,8.6,1.9c2.9,9.6,10.7,16.8,17.3,24.1c1.5-0.3,3.1,0,4.4,1.2
		c18,17.1,34,36,51.5,53.5c0,0,0.1,0.1,0.1,0.1c2.2-1.6,5.5-1.7,7.2,1.4c3,5.5,6.8,10.5,11.1,15
		C131.2,305.1,133.6,304.9,135.5,306.7z"/>
	<path id="XMLID_59_" class="st3" d="M278.1-1.3c-2,0.6-4,1.2-6.1,1.9c1.5-0.1,3.1-0.3,4.6-0.3c0.5,0,1.1,0,1.6,0
		C278.1-0.2,278.1-0.8,278.1-1.3z"/>
	<path id="XMLID_23_" class="st3" d="M429.9,45.3c-11.1-5.8-22.8-10.2-33.8-16.3c-8-4.5-16-9.3-24.9-11.1c-2.4-0.3-4.8-0.5-7.2-0.7
		c-1.7-0.1-3-0.9-3.8-2c-3.1-0.4-6.2-0.6-9.4-0.5c-3.9,0.1-7.7,0.6-11.6,0.8c-6.6,0.2-14.7-0.6-18.8-5.9c-5.6,0.2-11.3,0.4-16.9,0.6
		c-11.1,0.3-22.2-0.6-33.2,0.4c-11,1.1-21.8,5-32.5,7.6c-10.5,2.6-21.7,4.3-31.7,8.4c-8.9,3.6-17.2,8.5-26.5,11
		c-0.5,0.5-1.1,1-1.6,1.6c-1,1-2.1,1.5-3.2,1.5c0.2,2.6-1.4,5.4-4.8,5.4c-1.7,0-2.9-0.7-3.7-1.7c-2.8,1.9-5.5,3.9-8.3,5.7l109,309
		c7.1,1.1,14.3,2.3,21.3,4.1c2.1,0.1,4.2,0.3,6.3,0.3c10.4,0.2,20.7-1.7,30.8-4l116-307.3C437.6,49.8,433.9,47.4,429.9,45.3z"/>
	<path id="XMLID_71_" class="st3" d="M271.5,372.1l0.2,0.5c0.4,0.3,0.8,0.6,1.3,0.8c2.6-0.3,5.2-0.6,7.8-0.9
		C277.7,372.2,274.6,372.1,271.5,372.1z"/>
	<path id="XMLID_65_" class="st4" d="M549.3,146c-13.4-12.7-26.7-25.4-38.9-39.2c-6.3-7.2-13-14.1-19.9-20.6c-2.1,1.2-4.9,1-6.3-1.9
		c-5-10.2-14.6-15-24.2-20.1c-6.5-3.5-12.5-7.8-18.6-11.9l-116,307.3c1.1-0.3,2.2-0.5,3.3-0.8c5.7-1.4,11.3-2.4,16.9-3.2
		c7.1-1.9,14.5-3,21.7-4.3c8.8-1.7,18.1-3.4,26.9-6.3c7.7-4.4,15-9.1,23.4-12.1c1.8-0.7,3.6,0.1,4.8,1.4c6.7-4,13.3-8.3,19.4-13.1
		c1.8-1.4,3.9-1.4,5.6-0.6c19.4-13.2,37.3-28.7,51.1-47.9c1.6-2.2,4.1-2.6,6.2-1.8c3-4.8,6-9.6,9.3-14.1c4.1-5.7,8.6-11.3,13.8-16
		c5.4-4.8,11.4-8.8,16.4-14c2.2-2.3,5-1.7,6.7-0.1c2.5-2.6,4.9-5.2,7.4-7.9c6-6.4,12.2-12.8,17.6-19.7c3.2-4.2,5.9-8.7,9-12.9
		c0.8-1,1.6-2,2.4-3C574.3,171.3,562.2,158.2,549.3,146z"/>
	<path id="XMLID_10_" class="st4" d="M-33,248.8"/>
	<path id="XMLID_9_" class="st5" d="M522,244.6c-7.4,7.5-14.8,14.9-22.3,22.2c-6.8,6.6-14.5,13.4-20,21.1"/>
	<path id="XMLID_8_" class="st5" d="M486.9,88.3c4.9,2,8.8,6.9,12.6,10.5c5.2,5,10,10.5,15,15.7c9.8,10.4,19.5,20.8,29.3,31.2
		c9.7,10.3,19.5,20.6,29.4,30.6c1.8,1.9,4.9,4,5.2,6.8c0.3,2.8-3.1,5.1-4.9,7.1c-4.7,5.2-9.5,10.4-14.3,15.6
		c-10.8,11.6-21.8,23.1-32.9,34.4"/>
	<path id="XMLID_14_" class="st5" d="M241.7,18.9c19.3-2.7,37.3-3.7,56.3-1.7c4,1,8,2,12,3c32,3,61,10,93,17c11,3,19,9,29,15
		c18,12,33,23,50.7,33.3"/>
	<path id="XMLID_11_" class="st5" d="M138.9,69.2c23.2-14.1,46.5-28,69.9-41.9"/>
	<path id="XMLID_13_" class="st5" d="M16.2,186.3c21.8-23,44.8-44,67.8-67c11-10,21-20,32-30c3-4,8-7,11.2-11.7"/>
</g>
<g id="Layer_1">
	<path id="XMLID_68_" class="st6" d="M489.9,94.4c-10-10-20.6-19.1-31.7-27.2C362.3-3.1,230.5-2,135.6,70.3c-1.2,1-2.4,2-3.7,2.8
		c-8.3,6.5-16.2,13.6-23.9,21.2l-91.9,91.9l91.9,91.9c105.4,105.5,276.4,105.5,381.8,0l91.9-91.9L489.9,94.4z M299,261.3
		c-41.4,0-75-33.6-75-75c0-41.4,33.6-75,75-75s75,33.6,75,75C374,227.7,340.4,261.3,299,261.3z"/>
	<circle id="XMLID_12_" class="st7" cx="299" cy="186.3" r="75"/>
	<line id="XMLID_5_" class="st8" x1="299" y1="357.3" x2="299" y2="357.3"/>
	<path id="XMLID_7_" class="st6" d="M438.8,52.6C432,68.3,397,169.3,388,193.3c-6,16-12,31-18,47c-2,7-5,15-8,22
		c-12,31-22,63-33.9,94.3L438.8,52.6z"/>
	<line id="XMLID_1_" class="st6" x1="158.5" y1="54.6" x2="268.1" y2="355.8"/>
	<path id="XMLID_2_" class="st6" d="M419,107.3"/>
	<path id="XMLID_6_" class="st6" d="M432,68.3"/>
</g>
</svg>
