<?xml version="1.0" encoding="UTF-8" standalone="no"?>
<!-- Created with Inkscape (http://www.inkscape.org/) -->

<svg
   xmlns:dc="http://purl.org/dc/elements/1.1/"
   xmlns:cc="http://creativecommons.org/ns#"
   xmlns:rdf="http://www.w3.org/1999/02/22-rdf-syntax-ns#"
   xmlns:svg="http://www.w3.org/2000/svg"
   xmlns="http://www.w3.org/2000/svg"
   xmlns:sodipodi="http://sodipodi.sourceforge.net/DTD/sodipodi-0.dtd"
   xmlns:inkscape="http://www.inkscape.org/namespaces/inkscape"
   width="256mm"
   height="256mm"
   viewBox="0 0 256 256"
   version="1.1"
   id="svg8"
   inkscape:version="0.92.2 (5c3e80d, 2017-08-06)"
   sodipodi:docname="uvic_virtual_logo_outlined.svg">
  <defs
     id="defs2" />
  <sodipodi:namedview
     id="base"
     pagecolor="#ffffff"
     bordercolor="#666666"
     borderopacity="1.0"
     inkscape:pageopacity="0.0"
     inkscape:pageshadow="2"
     inkscape:zoom="0.35"
     inkscape:cx="223.49965"
     inkscape:cy="617.612"
     inkscape:document-units="mm"
     inkscape:current-layer="layer1"
     showgrid="false"
     fit-margin-top="0"
     fit-margin-left="0"
     fit-margin-right="0"
     fit-margin-bottom="0"
     inkscape:window-width="1920"
     inkscape:window-height="1001"
     inkscape:window-x="-9"
     inkscape:window-y="-9"
     inkscape:window-maximized="1" />
  <metadata
     id="metadata5">
    <rdf:RDF>
      <cc:Work
         rdf:about="">
        <dc:format>image/svg+xml</dc:format>
        <dc:type
           rdf:resource="http://purl.org/dc/dcmitype/StillImage" />
        <dc:title></dc:title>
      </cc:Work>
    </rdf:RDF>
  </metadata>
  <g
     inkscape:label="Layer 1"
     inkscape:groupmode="layer"
     id="layer1"
     transform="translate(97.182211,-44.225257)">
    <g
       id="g4804"
       transform="translate(-187.47619,-30.238095)">
      <path
         sodipodi:nodetypes="sscscccssscssscssssscssscccsssscssscsssss"
         style="fill:#ffffff;fill-opacity:1;stroke-width:0.26458332"
         d="m 211.80142,273.36114 c -14.17253,-1.34919 -25.09712,-3.90309 -37.93073,-8.86727 -11.73826,-4.54048 -23.4701,-11.66121 -33.70547,-20.4578 -1.63725,-1.40711 -11.10272,-10.59239 -21.03437,-20.41174 -19.148466,-18.93194 -26.918616,-26.79002 -26.920146,-27.22477 -5.3e-4,-0.14644 3.50466,-3.77035 7.78929,-8.05314 4.284626,-4.28278 7.743616,-7.86229 7.686646,-7.95447 -0.057,-0.0922 1.08087,-1.34759 2.52852,-2.78981 1.44765,-1.44222 2.6321,-2.52378 2.6321,-2.40348 0,0.1203 5.26851,-4.98722 11.70781,-11.35006 6.43929,-6.36284 11.68331,-11.65668 11.65337,-11.7641 -0.0299,-0.10742 0.23795,-0.46999 0.59531,-0.80571 0.35737,-0.33573 0.64975,-0.52146 0.64975,-0.41274 0,0.10872 0.39788,-0.13841 0.88418,-0.54919 0.4863,-0.41078 1.88528,-1.5903 3.10886,-2.62115 2.14426,-1.80655 7.98994,-6.21195 10.65942,-8.03312 4.228,-2.88442 15.53421,-8.7884 21.54226,-11.24913 9.24445,-3.78627 19.3145,-6.48615 30.08341,-8.06566 5.66078,-0.83029 17.19142,-1.24681 23.64588,-0.85417 19.80822,1.20497 36.84211,6.37486 55.33224,16.79364 5.18127,2.91953 10.35657,6.53515 16.13576,11.27294 1.52585,1.2509 2.89507,2.27437 3.0427,2.27437 0.14764,0 0.26842,0.14714 0.26842,0.32699 0,0.17984 3.75047,4.00217 8.33438,8.49406 4.5839,4.49188 14.99547,14.78723 23.13683,22.87854 l 14.80243,14.71149 -3.82222,3.90808 c -8.98768,9.18952 -42.64676,42.44505 -44.70249,44.16653 -13.45545,11.26765 -26.74916,18.56697 -42.99268,23.60647 -8.56795,2.65818 -13.12934,3.58371 -24.34167,4.93907 -3.32386,0.40179 -18.06058,0.75324 -20.76979,0.49533 z M 110.46601,177.88041 c 1.37669,-1.38245 2.44355,-2.51354 2.37079,-2.51354 -0.0728,0 -1.25868,1.13109 -2.63538,2.51354 -1.3767,1.38245 -2.44356,2.51354 -2.3708,2.51354 0.0728,0 1.25869,-1.13109 2.63539,-2.51354 z m 26.59062,-26.32604 c 0.26339,-0.29104 0.41936,-0.52917 0.3466,-0.52917 -0.0728,0 -0.34779,0.23813 -0.61118,0.52917 -0.26339,0.29104 -0.41936,0.52917 -0.3466,0.52917 0.0728,0 0.34779,-0.23813 0.61118,-0.52917 z"
         id="path991-0"
         inkscape:connector-curvature="0" />
      <path
         style="fill:#e7a801;stroke-width:0.26185566"
         d="m 211.80142,268.59864 c -1.08015,-0.12196 -2.21665,-0.28256 -2.52556,-0.35689 -0.64439,-0.15505 -1.53211,-2.46633 -11.2171,-29.20496 -6.36652,-17.57689 -7.20579,-19.95809 -7.20579,-20.44442 0,-0.17848 1.38456,1.07859 3.0768,2.79347 4.81642,4.88085 8.99907,7.556 14.86292,9.50609 8.90714,2.96216 18.31295,2.38024 26.73346,-1.65396 3.80157,-1.8213 6.18916,-3.45832 9.53888,-6.54018 2.43952,-2.24444 2.75014,-2.45534 2.81953,-1.91439 0.0429,0.33437 -0.70404,2.66334 -1.65983,5.17551 -2.91995,7.6747 -5.13779,13.7689 -9.23829,25.38509 -4.89564,13.86876 -5.7884,16.28078 -6.18107,16.69972 -0.66656,0.71117 -14.13663,1.1045 -19.00395,0.55492 z m 26.53283,-1.43658 c -0.0861,-0.22434 -0.0101,-0.89984 0.16894,-1.50112 0.53051,-1.78199 12.34432,-34.20558 22.34248,-61.32003 2.23045,-6.04886 6.37918,-17.47886 9.2194,-25.4 4.3925,-12.25035 11.7215,-32.36682 12.66454,-34.76134 0.15597,-0.39606 0.46892,-0.72011 0.69544,-0.72011 0.9337,0 8.96118,5.88678 12.69391,9.30881 5.16422,4.73436 43.99175,43.42216 43.99175,43.83343 0,0.70786 -43.77064,43.86964 -47.55867,46.8971 -14.23063,11.37341 -30.29193,18.99721 -48.14959,22.85514 -6.00427,1.29715 -5.88656,1.28148 -6.0682,0.80812 z m -40.57884,-0.3684 c -16.03179,-3.21111 -31.92844,-10.08381 -44.91492,-19.41835 -7.27055,-5.22599 -7.55964,-5.49625 -34.32515,-32.09042 -10.04544,-9.98113 -18.26443,-18.32893 -18.26443,-18.55067 0,-1.02942 37.08076,-38.09093 44.38453,-44.36149 2.98839,-2.56565 9.68047,-7.64224 10.92468,-8.28743 0.65896,-0.34171 0.74035,-0.32504 1.08684,0.2225 0.66707,1.05413 8.57348,22.52355 28.56896,77.57744 16.23923,44.71176 16.19256,44.58058 16.02049,45.029 -0.18927,0.49321 -0.46412,0.48369 -3.481,-0.12058 z m 19.02127,-38.2786 c -10.61574,-1.125 -20.6982,-8.14891 -25.27151,-17.60533 -2.29202,-4.7393 -3.27076,-8.94272 -3.27076,-14.04706 0,-4.08529 0.37183,-6.62429 1.44162,-9.84386 4.20582,-12.65758 15.23478,-21.36047 28.14807,-22.21146 9.38892,-0.61873 18.34335,2.72305 24.87441,9.28306 5.04344,5.06581 8.41526,11.97027 9.1984,18.83547 0.32694,2.86611 0.12686,7.61629 -0.43288,10.27721 -2.67625,12.72245 -13.38568,23.03841 -25.90432,24.95258 -3.14944,0.48157 -6.38197,0.61384 -8.78303,0.35939 z m -33.72092,-30.78954 c -0.61093,-1.43863 -16.76965,-45.85801 -19.19318,-52.76095 -1.6152,-4.60057 -1.62689,-4.6542 -1.1337,-5.20089 0.73202,-0.81145 10.18726,-5.43796 14.8208,-7.25192 12.58287,-4.92598 24.04839,-7.30969 38.1435,-7.93011 12.14485,-0.53458 24.2068,0.85596 35.64845,4.10965 7.21456,2.05162 14.59278,4.90336 20.99954,8.11646 4.01534,2.01377 4.92417,2.61943 4.92417,3.28154 0,0.50553 -6.64195,19.14088 -15.76063,44.21965 -3.96852,10.91448 -4.61847,12.56907 -4.93737,12.56907 -0.11482,0 -0.28095,-0.79538 -0.36916,-1.76752 -0.48174,-5.3087 -1.1515,-8.36604 -2.64308,-12.06507 -3.48595,-8.64502 -11.03818,-16.19756 -19.78897,-19.78977 -4.43032,-1.81864 -6.86167,-2.29714 -12.40697,-2.44171 -7.0318,-0.18335 -11.00569,0.61369 -16.81078,3.37167 -7.61638,3.61855 -14.47028,10.75459 -17.62091,18.3463 -1.84101,4.43606 -2.87854,9.76039 -2.88185,14.7889 -5.3e-4,0.74761 -0.10491,1.42357 -0.23203,1.50213 -0.12712,0.0786 -0.46815,-0.41528 -0.75783,-1.09743 z"
         id="path974-9"
         inkscape:connector-curvature="0" />
      <path
         style="fill:#d0262e;stroke-width:0.26185566"
         d="m 211.80142,268.59864 c -1.08015,-0.12196 -2.21665,-0.28256 -2.52556,-0.35689 -0.64439,-0.15505 -1.53211,-2.46633 -11.2171,-29.20496 -6.36652,-17.57689 -7.20579,-19.95809 -7.20579,-20.44442 0,-0.17848 1.38456,1.07859 3.0768,2.79347 4.81642,4.88085 8.99907,7.556 14.86292,9.50609 8.90714,2.96216 18.31295,2.38024 26.73346,-1.65396 3.80157,-1.8213 6.18916,-3.45832 9.53888,-6.54018 2.43952,-2.24444 2.75014,-2.45534 2.81953,-1.91439 0.0429,0.33437 -0.70404,2.66334 -1.65983,5.17551 -2.91995,7.6747 -5.13779,13.7689 -9.23829,25.38509 -4.89564,13.86876 -5.7884,16.28078 -6.18107,16.69972 -0.66656,0.71117 -14.13663,1.1045 -19.00395,0.55492 z m 26.44743,-1.80651 c 0,-0.61438 11.02152,-30.9934 23.55984,-64.93885 1.46291,-3.96056 4.3717,-11.97335 6.46399,-17.80618 7.67732,-21.40266 13.23825,-36.68741 14.36177,-39.47475 0.24672,-0.61209 0.60782,-1.11289 0.80245,-1.11289 0.19462,0 1.56639,0.82093 3.04837,1.82429 6.39819,4.33182 8.37146,6.15201 31.13127,28.71607 12.18372,12.07894 22.23811,22.13846 22.34309,22.35449 0.25517,0.5251 -42.13632,42.80187 -46.42919,46.30354 -14.5823,11.89473 -31.00775,19.78574 -49.43288,23.74823 -5.01293,1.07808 -5.84871,1.13324 -5.84871,0.38605 z m -21.47217,-38.27707 c -10.61574,-1.125 -20.6982,-8.14891 -25.27151,-17.60533 -2.29202,-4.7393 -3.27076,-8.94272 -3.27076,-14.04706 0,-4.08529 0.37183,-6.62429 1.44162,-9.84386 4.20582,-12.65758 15.23478,-21.36047 28.14807,-22.21146 9.38892,-0.61873 18.34335,2.72305 24.87441,9.28306 5.04344,5.06581 8.41526,11.97027 9.1984,18.83547 0.32694,2.86611 0.12686,7.61629 -0.43288,10.27721 -2.67625,12.72245 -13.38568,23.03841 -25.90432,24.95258 -3.14944,0.48157 -6.38197,0.61384 -8.78303,0.35939 z m -33.72092,-30.78954 c -0.61093,-1.43863 -16.76965,-45.85801 -19.19318,-52.76095 -1.6152,-4.60057 -1.62689,-4.6542 -1.1337,-5.20089 0.73202,-0.81145 10.18726,-5.43796 14.8208,-7.25192 12.58287,-4.92598 24.04839,-7.30969 38.1435,-7.93011 12.14485,-0.53458 24.2068,0.85596 35.64845,4.10965 7.21456,2.05162 14.59278,4.90336 20.99954,8.11646 4.01534,2.01377 4.92417,2.61943 4.92417,3.28154 0,0.50553 -6.64195,19.14088 -15.76063,44.21965 -3.96852,10.91448 -4.61847,12.56907 -4.93737,12.56907 -0.11482,0 -0.28095,-0.79538 -0.36916,-1.76752 -0.48174,-5.3087 -1.1515,-8.36604 -2.64308,-12.06507 -3.48595,-8.64502 -11.03818,-16.19756 -19.78897,-19.78977 -4.43032,-1.81864 -6.86167,-2.29714 -12.40697,-2.44171 -7.0318,-0.18335 -11.00569,0.61369 -16.81078,3.37167 -7.61638,3.61855 -14.47028,10.75459 -17.62091,18.3463 -1.84101,4.43606 -2.87854,9.76039 -2.88185,14.7889 -5.3e-4,0.74761 -0.10491,1.42357 -0.23203,1.50213 -0.12712,0.0786 -0.46815,-0.41528 -0.75783,-1.09743 z"
         id="path972-3"
         inkscape:connector-curvature="0" />
      <path
         style="fill:#025cb4;stroke-width:0.26185566"
         d="m 211.80142,268.59864 c -1.08015,-0.12196 -2.21665,-0.28256 -2.52556,-0.35689 -0.64439,-0.15505 -1.53211,-2.46633 -11.2171,-29.20496 -6.36652,-17.57689 -7.20579,-19.95809 -7.20579,-20.44442 0,-0.17848 1.38456,1.07859 3.0768,2.79347 4.81642,4.88085 8.99907,7.556 14.86292,9.50609 8.90714,2.96216 18.31295,2.38024 26.73346,-1.65396 3.80157,-1.8213 6.18916,-3.45832 9.53888,-6.54018 2.43952,-2.24444 2.75014,-2.45534 2.81953,-1.91439 0.0429,0.33437 -0.70404,2.66334 -1.65983,5.17551 -2.91995,7.6747 -5.13779,13.7689 -9.23829,25.38509 -4.89564,13.86876 -5.7884,16.28078 -6.18107,16.69972 -0.66656,0.71117 -14.13663,1.1045 -19.00395,0.55492 z m 4.97526,-40.08358 c -10.61574,-1.125 -20.6982,-8.14891 -25.27151,-17.60533 -2.29202,-4.7393 -3.27076,-8.94272 -3.27076,-14.04706 0,-4.08529 0.37183,-6.62429 1.44162,-9.84386 4.20582,-12.65758 15.23478,-21.36047 28.14807,-22.21146 9.38892,-0.61873 18.34335,2.72305 24.87441,9.28306 5.04344,5.06581 8.41526,11.97027 9.1984,18.83547 0.32694,2.86611 0.12686,7.61629 -0.43288,10.27721 -2.67625,12.72245 -13.38568,23.03841 -25.90432,24.95258 -3.14944,0.48157 -6.38197,0.61384 -8.78303,0.35939 z m -33.72092,-30.78954 c -0.61093,-1.43863 -16.76965,-45.85801 -19.19318,-52.76095 -1.6152,-4.60057 -1.62689,-4.6542 -1.1337,-5.20089 0.73202,-0.81145 10.18726,-5.43796 14.8208,-7.25192 12.58287,-4.92598 24.04839,-7.30969 38.1435,-7.93011 12.14485,-0.53458 24.2068,0.85596 35.64845,4.10965 7.21456,2.05162 14.59278,4.90336 20.99954,8.11646 4.01534,2.01377 4.92417,2.61943 4.92417,3.28154 0,0.50553 -6.64195,19.14088 -15.76063,44.21965 -3.96852,10.91448 -4.61847,12.56907 -4.93737,12.56907 -0.11482,0 -0.28095,-0.79538 -0.36916,-1.76752 -0.48174,-5.3087 -1.1515,-8.36604 -2.64308,-12.06507 -3.48595,-8.64502 -11.03818,-16.19756 -19.78897,-19.78977 -4.43032,-1.81864 -6.86167,-2.29714 -12.40697,-2.44171 -7.0318,-0.18335 -11.00569,0.61369 -16.81078,3.37167 -7.61638,3.61855 -14.47028,10.75459 -17.62091,18.3463 -1.84101,4.43606 -2.87854,9.76039 -2.88185,14.7889 -5.3e-4,0.74761 -0.10491,1.42357 -0.23203,1.50213 -0.12712,0.0786 -0.46815,-0.41528 -0.75783,-1.09743 z"
         id="path970-5"
         inkscape:connector-curvature="0" />
      <path
         style="fill:#002c5b;stroke-width:0.26185566"
         d="m 216.90761,228.14221 c -4.54948,-0.67843 -7.7688,-1.67779 -11.39072,-3.53596 -8.37655,-4.29748 -14.42145,-12.34442 -16.34618,-21.75997 -0.47812,-2.3389 -0.56002,-9.09411 -0.14153,-11.67297 0.98416,-6.06467 4.1943,-12.13952 8.88547,-16.81488 6.03731,-6.01694 13.58281,-9.15819 22.01117,-9.16341 5.38816,-0.003 9.60992,0.966 14.26426,3.27515 8.25733,4.09668 13.96983,11.14968 16.55146,20.43542 0.6782,2.43939 0.72378,2.92789 0.71929,7.71058 -0.005,5.72652 -0.35889,7.72083 -2.13433,12.04035 -4.03489,9.8166 -12.82313,17.01662 -23.17179,18.98415 -2.18926,0.41623 -7.7842,0.71969 -9.2471,0.50154 z"
         id="path968-1"
         inkscape:connector-curvature="0" />
    </g>
  </g>
  <style
     id="style909"
     type="text/css">
	.st0{display:none;}
	.st1{display:inline;fill:#666666;stroke:#666666;stroke-width:10;stroke-miterlimit:10;}
	.st2{fill:#EAAA00;}
	.st3{fill:#005EB8;}
	.st4{fill:#D22630;}
	.st5{fill:none;}
	.st6{fill:none;stroke:#FFFFFF;stroke-width:14;stroke-miterlimit:10;}
	.st7{fill:#002E5D;stroke:#FFFFFF;stroke-width:5;stroke-miterlimit:10;}
	.st8{fill:none;stroke:#666666;stroke-width:10;stroke-miterlimit:10;}
</style>
  <style
     type="text/css"
     id="style909-5">
	.st0{display:none;}
	.st1{display:inline;fill:#666666;stroke:#666666;stroke-width:10;stroke-miterlimit:10;}
	.st2{fill:#EAAA00;}
	.st3{fill:#005EB8;}
	.st4{fill:#D22630;}
	.st5{fill:none;}
	.st6{fill:none;stroke:#FFFFFF;stroke-width:14;stroke-miterlimit:10;}
	.st7{fill:#002E5D;stroke:#FFFFFF;stroke-width:5;stroke-miterlimit:10;}
	.st8{fill:none;stroke:#666666;stroke-width:10;stroke-miterlimit:10;}
</style>
</svg>
